# xmcd
#
# Track frame offsets:
#	150
#	17737
#	31975
#
# Disc length: 648 seconds
#
# Revision: 0
# Processed by: cddbd v1.4PL0 Copyright (c) Steve Scherf et al.
# Submitted via: audiograbber 1.81.03
#
DISCID=19028603
DTITLE=Blue Gator - Demo
DYEAR=2002
DGENRE=Blues
TTITLE0=Lightning Strikes Twice
TTITLE1=You and Me
TTITLE2=Big Sky
EXTD=
EXTT0=
EXTT1=
EXTT2=
PLAYORDER=
